# xmcd CD database file
#
# Track frame offsets:
#	150
#	19327
#	37793
#	59768
#	78449
#	94146
#	125460
#	150189
#	168563
#	191386
#	209297
#	221732
#	245593
#	266245
#	290257
#
# Disc length: 4146 seconds
#
# Revision: 0
# Processed by: cddbd v1.5.2PL0 Copyright (c) Steve Scherf et al.
# Submitted via: CDex 1.51
#
DISCID=d410300f
DTITLE=Ryan Farish - Daydreamer
DYEAR=2002
DGENRE=New Age
TTITLE0=Night Wind
TTITLE1=Secret Garden
TTITLE2=Atlantica
TTITLE3=Holding Faith
TTITLE4=Angel
TTITLE5=Chasing The Sun
TTITLE6=Daydreamer
TTITLE7=Dream In Essence
TTITLE8=Enchanted
TTITLE9=Modern Beauty
TTITLE10=Letting Go
TTITLE11=If Only
TTITLE12=Imaginary
TTITLE13=Journey To The Light
TTITLE14=Holding Faith (Reprise)
EXTD=YEAR: 2002
EXTT0=
EXTT1=
EXTT2=
EXTT3=
EXTT4=
EXTT5=
EXTT6=
EXTT7=
EXTT8=
EXTT9=
EXTT10=
EXTT11=
EXTT12=
EXTT13=
EXTT14=
PLAYORDER=
